<?xml version="1.0" encoding="UTF-8"?>
<svg id="Capa_1" data-name="Capa 1" xmlns="http://www.w3.org/2000/svg" viewBox="0 0 35.7 35.34">
  <defs>
    <style>
      .cls-1 {
        fill: #ef7f7e;
      }
    </style>
  </defs>
  <path class="cls-1" d="m14.91,35.34C7.86,34.64.86,28.19.12,19.71-.92,7.73,8.57-.69,19.25.05c8.6.6,17.1,8.09,16.37,19.14-.6,9.05-7.76,15.36-14.79,16.14v-12.17h3.98c.28-1.75.55-3.43.85-5.27h-4.72c-.35-4.31-.91-6.27,4.78-6.13v-4.3c-2.86-1.17-7.14-.58-8.95,1.26-1.2,1.21-1.7,2.72-1.76,4.37-.05,1.52-.01,3.04-.01,4.69h-4.48v5.31h4.4v12.25Z"/>
</svg>