<?xml version="1.0" encoding="utf-8"?>
<!-- Generator: Adobe Illustrator 27.5.0, SVG Export Plug-In . SVG Version: 6.00 Build 0)  -->
<svg version="1.1" id="Capa_1" xmlns="http://www.w3.org/2000/svg" xmlns:xlink="http://www.w3.org/1999/xlink" x="0px" y="0px"
	 viewBox="0 0 35.7 35.3" style="enable-background:new 0 0 35.7 35.3;" xml:space="preserve">
<style type="text/css">
	.st0{fill:#FFFFFF;}
</style>
<path class="st0" d="M14.9,35.3c-7-0.7-14.1-7.1-14.8-15.6C-0.9,7.7,8.6-0.7,19.2,0c8.6,0.6,17.1,8.1,16.4,19.1
	c-0.6,9-7.8,15.4-14.8,16.1V23.2h4c0.3-1.8,0.5-3.4,0.9-5.3h-4.7c-0.4-4.3-0.9-6.3,4.8-6.1V7.5c-2.9-1.2-7.1-0.6-8.9,1.3
	c-1.2,1.2-1.7,2.7-1.8,4.4c-0.1,1.5,0,3,0,4.7h-4.5v5.3h4.4L14.9,35.3L14.9,35.3z"/>
</svg>
