<?xml version="1.0" encoding="UTF-8"?>
<svg id="Capa_1" data-name="Capa 1" xmlns="http://www.w3.org/2000/svg" viewBox="0 0 213.82 212.77">
  <defs>
    <style>
      .cls-1 {
        fill: #fff;
      }

      .cls-2 {
        fill: #ef7f7e;
      }
    </style>
  </defs>
  <circle class="cls-2" cx="106.91" cy="106.39" r="106.22"/>
  <g>
    <g>
      <path class="cls-1" d="m128.32,105.03c-.15,8.76-2.04,9.33-44.94,7.91-40.19-1.33-44.86-.66-44.71-9.42.15-8.76,20.34-15.52,45.09-15.11s44.71,7.86,44.56,16.62Z"/>
      <path class="cls-1" d="m38.29,125.71c.08-4.53,1.44-6.52,3.44-6.06,1.69.39,7.56,4.58,10.32,4.59,6.67.01,4.18-.62,13.89-2.11,5.11.03,12.32,2.91,16.62,2.94,5.34.03,10.42-3.16,14.64-3.19,6.03-.05,10.31,3.1,14.31,3.41,6.67.52,11.62-4.63,13.92-3.03,1.84,1.28,2.54,2.93,2.5,4.97-.14,8.07-20.32,14.27-45.07,13.85-24.76-.42-44.72-7.3-44.58-15.37Z"/>
      <path class="cls-1" d="m41.54,122.68c-.47,0-.93-.22-1.22-.62-3.96-5.51-.64-11.24,1.67-13.5.59-.58,1.54-.57,2.12.02.58.59.57,1.54-.02,2.12-.21.2-4.77,4.83-1.33,9.61.48.67.33,1.61-.34,2.09-.26.19-.57.28-.87.28Z"/>
      <path class="cls-1" d="m123.87,125.27c-.38,0-.75-.14-1.04-.42-.6-.58-.61-1.53-.04-2.12,3.74-3.87.17-10.98.13-11.05-.38-.74-.09-1.64.65-2.02.74-.38,1.64-.09,2.02.65.19.37,4.57,9.1-.64,14.5-.29.3-.69.46-1.08.46Z"/>
    </g>
    <g>
      <path class="cls-1" d="m182.56,107.44c-4.42,7.57-6.35,7.13-43.06-15.11-34.39-20.84-38.79-22.54-34.38-30.11s25.33-3.58,46.72,8.91c21.38,12.49,35.13,28.74,30.71,36.31Z"/>
      <path class="cls-1" d="m93.94,81.39c2.28-3.91,4.45-4.98,5.96-3.6,1.28,1.17,4.35,7.7,6.75,9.05,5.81,3.28,3.95,1.51,13.15,4.96,4.44,2.53,9.32,8.57,13.06,10.7,4.64,2.64,10.63,2.34,14.33,4.38,5.28,2.91,7.47,7.76,10.81,9.99,5.56,3.72,12.4,1.65,13.62,4.18.98,2.02.78,3.8-.25,5.56-4.07,6.97-24.7,2.49-46.08-9.99-21.38-12.49-35.42-28.26-31.35-35.22Z"/>
      <path class="cls-1" d="m98.98,80.53c-.75,0-1.4-.57-1.49-1.33-.76-6.75,4.95-10.12,8.07-10.96.8-.21,1.62.26,1.84,1.06s-.26,1.62-1.06,1.84c-.29.08-6.52,1.88-5.87,7.73.09.82-.5,1.57-1.32,1.66-.06,0-.11,0-.17,0Z"/>
      <path class="cls-1" d="m169.51,123.1c-.64,0-1.24-.42-1.44-1.07-.24-.79.21-1.63,1.01-1.87,5.13-1.54,5.52-9.49,5.52-9.57.04-.83.72-1.49,1.56-1.44.83.03,1.47.73,1.44,1.56-.02.41-.47,10.17-7.66,12.33-.14.04-.29.06-.43.06Z"/>
    </g>
  </g>
</svg>