<?xml version="1.0" encoding="UTF-8"?>
<svg id="Capa_1" data-name="Capa 1" xmlns="http://www.w3.org/2000/svg" viewBox="0 0 213.82 212.77">
  <defs>
    <style>
      .cls-1 {
        fill: #fff;
      }

      .cls-1, .cls-2 {
        stroke-width: 3.92px;
      }

      .cls-1, .cls-2, .cls-3, .cls-4 {
        stroke: #fff;
        stroke-linecap: round;
        stroke-miterlimit: 10;
      }

      .cls-2, .cls-3, .cls-4 {
        fill: none;
      }

      .cls-5 {
        fill: #ef7f7e;
      }

      .cls-3 {
        stroke-width: 3.76px;
      }

      .cls-4 {
        stroke-width: 3.62px;
      }
    </style>
  </defs>
  <circle class="cls-5" cx="106.91" cy="106.39" r="106.22"/>
  <g>
    <g>
      <path class="cls-2" d="m116.27,70.13s-41.52,41.22-21.7,54.43"/>
      <path class="cls-2" d="m123.27,73.59s-4.52,58.33-27.42,51.79"/>
      <path class="cls-4" d="m94.18,123.75c17.61-2.12,27.52-50.59,27.52-50.59"/>
      <path class="cls-3" d="m118.55,71.25s-32.77,38.53-22.19,53.55"/>
      <path class="cls-2" d="m120.31,72.25s-26.08,47.78-24.96,52.97"/>
      <path class="cls-1" d="m116.27,69.36s2.31,2.89,7.55,3.8l23.59-40.13s-5.66-7.08-9.67-5.66c-4.01,1.42-21.47,41.99-21.47,41.99Z"/>
    </g>
    <ellipse class="cls-2" cx="101.36" cy="123.86" rx="46.36" ry="11.21"/>
    <path class="cls-2" d="m55.01,123.86s-.24,39.52,13.68,48.24,46.24,11.09,55.68,4.72c9.44-6.37,23.83-35.86,23.36-51.43"/>
  </g>
</svg>