<?xml version="1.0" encoding="UTF-8"?>
<svg id="Capa_1" data-name="Capa 1" xmlns="http://www.w3.org/2000/svg" viewBox="0 0 213.82 212.77">
  <defs>
    <style>
      .cls-1, .cls-2, .cls-3 {
        stroke-miterlimit: 10;
        stroke-width: 3px;
      }

      .cls-1, .cls-4 {
        fill: #ef7f7e;
      }

      .cls-1, .cls-3 {
        stroke: #fff;
      }

      .cls-5, .cls-2 {
        fill: #fff;
      }

      .cls-2 {
        stroke: #ef7f7e;
      }

      .cls-2, .cls-3 {
        stroke-linecap: round;
      }

      .cls-3 {
        fill: none;
      }
    </style>
  </defs>
  <circle class="cls-4" cx="106.91" cy="106.39" r="106.22"/>
  <g>
    <path class="cls-1" d="m51.64,112.92c2.41-5.94,10.6-1.67,15.63-2.45,1.51.29,6.52-.96,5.03,1.98-7.37,15.61-13.4,14.65,7,14.3,3.02-.57,7.78,1.2,9.44-2.11,2.65-3.76,4.5-14.24,8.84-15.09,4.55.37,38.67-3.51,36.28,2.8-.28,2.32-9.33,14.16-4.64,13.32,21.12-1.58,18.04,3.95,17.39-18.12-.19-8.36-1.65-16.59-2.92-24.84-1.88-1.81-5.64.15-8.11.09-.44.07-.93.71-1.15,1.19-1.52,5.77-4.73,10.46-10.2,13.15-8.77,4.12-23.14,6.11-29.01-3.27-.49-1.26-1.14-1.48-2.36-1.25-10,1.89-20.02,3.65-30.14,4.71-6.31-2.49-4.93-16.95-14.23-14.81-2.48.79-7.62.39-7,4.13,1.43,9.32,5.41,17.94,9.68,26.27.16,0,.32-.01.48-.02Z"/>
    <path class="cls-5" d="m118.02,110.09c-5.87,1.48-21.33-1.24-22.52,4.24-4.15,10.49-10.63,20.1-13.3,31.15-4.05,11.5,3.49,19.69,15,14.36,17.31-10.12,25.7-29.95,34.69-46.99,2.02-2.81-12.46-1.96-13.87-2.76Z"/>
    <path class="cls-5" d="m138.1,49.62c-15.43,4.84-24.01,22.59-30.23,36.47-.82,3.05,7.8-.98,9.59-.79,6.65-2.57,21.29-2.23,25.21-7.49,3.12-8,7.65-27.15-4.56-28.19Z"/>
    <path class="cls-5" d="m62.96,111.91c-2.85.43-7.31-1.74-9.19.92-1.07,3.67-11.62,22.85-3.82,21.91,10.61-1.76,15.81-12.5,19.88-21.3,1.03-2.72-5.28-.86-6.86-1.38v-.14Z"/>
    <path class="cls-2" d="m132.05,83.5c-11.71,2.32-23.03,5.32-34.57,8.19-3.02,1.55,3.28,5.59,5.06,5.74,11.29,3.24,28.01-.22,29.52-13.93Z"/>
    <path class="cls-3" d="m160.54,113.83c-1.63-8.5,1.93-29.22-8.05-32.06-3.47-2.31,3.13,19.54,2.07,22.81.28,5.78.39,11.56.55,17.35.05,1.66.11,1.62,1.76,1.34,4.09-.44,3.77-6.07,3.67-9.44Z"/>
    <path class="cls-3" d="m153.47,117.67c-.05-3.66-1.55-43.82-8.03-35.14,2.53,13.45,3.15,27.02,3.22,40.68.03,1.21.27,1.44,1.45,1.3,4.81.2,3.04-3.53,3.37-6.84Z"/>
    <path class="cls-5" d="m63.43,95.58c4.94-1.18,11.52.44,14.82-3.42,4.61-7.84-.75-10.42-7.56-6.7-3.59,2.35-5.17,6.22-7.26,10.12Z"/>
    <path class="cls-3" d="m177.66,102.98c1.89-.94,6.09.25,6.29-3.66-.06-3.23-2.52-3.61-4.16-3.24-6.89,1.06-14.52,5.43-2.13,6.89Z"/>
    <path class="cls-3" d="m165.74,87.91c.09,2.63-.95,7.81,3.16,7.38,3.28-3.65,3.3-9.95,2.21-14.72-4.32-6.53-6.07,3.89-5.38,7.34,0,0,0,0,0,0Z"/>
    <path class="cls-3" d="m165.68,113.44c.11,2.05,1.41,13.39,5.17,7.93.78-5.21.86-12.3-3.22-16.18-1.81,2.42-1.24,4.87-1.95,8.25Z"/>
    <path class="cls-3" d="m161.73,100.26c-1.9,7.37,9.27,3.46,7.2-1.67-.81-2.49-4.07-2.64-6.25-2.34-1.51.61-.93,2.71-1.01,4.01h.06Z"/>
  </g>
</svg>