<?xml version="1.0" encoding="UTF-8"?>
<svg id="Capa_1" data-name="Capa 1" xmlns="http://www.w3.org/2000/svg" viewBox="0 0 213.82 212.77">
  <defs>
    <style>
      .cls-1 {
        fill: #fff;
      }

      .cls-1, .cls-2, .cls-3 {
        stroke: #ef7f7e;
      }

      .cls-1, .cls-3, .cls-4 {
        stroke-linecap: round;
        stroke-linejoin: round;
        stroke-width: 3px;
      }

      .cls-2 {
        fill: #ed7d86;
        stroke-miterlimit: 10;
      }

      .cls-5 {
        fill: #ef7f7e;
      }

      .cls-3, .cls-4 {
        fill: none;
      }

      .cls-4 {
        stroke: #fff;
      }
    </style>
  </defs>
  <circle class="cls-5" cx="106.91" cy="106.39" r="106.22"/>
  <g>
    <g>
      <path class="cls-1" d="m165.89,49.94s11.1-1.15,7.08,4.97c-4.02,6.12-12.69,15.37-12.88,15.37s-1.02-9.76-1.02-9.76l6.82-10.59Z"/>
      <path class="cls-1" d="m165.19,46.5c.57,0,5.89,2.14-2.36,12.88-8.25,10.74-8.16,12.24-8.16,12.24l4.53-16.58s5.42-8.54,5.99-8.54Z"/>
      <path class="cls-1" d="m159.06,44.01s-2.55,14.14-6.63,19.32,6.63,5.36,6.63,5.36c0,0,6.12-18.56,3.57-21.62-2.55-3.06-3.57-3.06-3.57-3.06Z"/>
      <path class="cls-1" d="m174.18,53.45c-2.93,0-11.73,14.03-11.67,15.62s13.25-7.46,13.25-7.46c0,0,1.35-8.16-1.58-8.16Z"/>
      <path class="cls-1" d="m157.73,70.77c-.64,2.21,2.42,11.05,3.27,10.2s9.65-14.14,13.69-14.84c3.46-.6,5.31-1.06,4.74-2.55-3.02-7.97-21.05,4.97-21.7,7.18Z"/>
      <path class="cls-1" d="m88.9,134.54c6.12-11.9,14.11-31.8,24.83-47.61,10.71-15.81,31.63-32.82,43.53-20.91,11.9,11.9,17.34,16.15,7.48,32.14-3.97,6.43-56.11,50.33-61.89,53.05-5.78,2.72-10.54,12.92-14.96,11.56-4.42-1.36-5.1-16.32,1.02-28.23Z"/>
      <path class="cls-3" d="m103.15,151.05c-.03-2.22-.52-4.75-2.22-6.2"/>
      <path class="cls-3" d="m107.82,132.1c5.82,2.08,5.38,9.23,5.02,11.81"/>
      <path class="cls-3" d="m123.45,135.41s.69-12.24-6.46-14.79"/>
      <path class="cls-3" d="m131.28,102.64c7.8,2.86,10.39,15.16,10.73,16.96"/>
      <path class="cls-3" d="m157.64,105.56s4.71-8.54-3.7-12.11"/>
      <line class="cls-3" x1="100.93" y1="129.27" x2="104.76" y2="130.8"/>
      <line class="cls-3" x1="108.44" y1="115.7" x2="114.68" y2="119.14"/>
      <path class="cls-3" d="m145.82,87.46s3.32,1.53,4.59,2.81"/>
      <path class="cls-3" d="m122.55,96.7s3.32,1.53,4.59,2.81"/>
    </g>
    <g>
      <g>
        <path class="cls-5" d="m111.12,110.44c0,21.46-17.32,39.54-37,39.54-1.11,0-2.22-.05-3.31-.15,0-.01-.01,0-.01,0-18.26-1.64-33.66-16.69-33.66-36.92,0-21.46,16.17-41.21,35.85-41.21,5.85,0,11.61,1.53,16.79,4.27,12.24,6.4,21.34,19.41,21.34,34.48Z"/>
        <path class="cls-4" d="m111.12,110.44c0,21.46-17.32,39.54-37,39.54-1.11,0-2.22-.05-3.31-.15,0-.01-.01,0-.01,0-18.26-1.64-33.66-16.69-33.66-36.92,0-21.46,16.17-41.21,35.85-41.21,5.85,0,11.61,1.53,16.79,4.27,12.24,6.4,21.34,19.41,21.34,34.48Z"/>
      </g>
      <path class="cls-5" d="m117.34,119.3c-3.78,20.58-24,34.79-43.34,31.24-1.08-.19-2.14-.44-3.19-.72,1.1.1,2.21.15,3.31.15,19.68,0,37-18.08,37-39.54,0-15.07-9.1-28.08-21.34-34.48,17.82,5,31.13,23.87,27.56,43.34Z"/>
      <path class="cls-2" d="m106.89,110.49c0,19.01-15.33,35.02-32.76,35.02s-32.76-13.83-32.76-32.83,14.32-36.5,31.75-36.5,33.77,15.31,33.77,34.32Z"/>
      <g>
        <path class="cls-5" d="m94.09,90.11l-17.3,15.2c-1.3,1.15-3.35.67-4.01-.94l-8.99-21.85c-.55-1.34.13-2.89,1.5-3.36,8.83-3.03,21.94,1.36,28.78,7.12,1.18.99,1.18,2.81.02,3.82Z"/>
        <path class="cls-4" d="m94.09,90.11l-17.3,15.2c-1.3,1.15-3.35.67-4.01-.94l-8.99-21.85c-.55-1.34.13-2.89,1.5-3.36,8.83-3.03,21.94,1.36,28.78,7.12,1.18.99,1.18,2.81.02,3.82Z"/>
      </g>
      <g>
        <path class="cls-5" d="m95.88,128.01l-18.43-17.11c-1.11-1.03-1.07-2.8.09-3.78l17.96-15.19c1.15-.97,2.88-.74,3.72.5,3.78,5.61,10.05,19.12.55,35.05-.82,1.37-2.72,1.62-3.89.54Z"/>
        <path class="cls-4" d="m95.88,128.01l-18.43-17.11c-1.11-1.03-1.07-2.8.09-3.78l17.96-15.19c1.15-.97,2.88-.74,3.72.5,3.78,5.61,10.05,19.12.55,35.05-.82,1.37-2.72,1.62-3.89.54Z"/>
      </g>
      <g>
        <path class="cls-5" d="m63.23,138.61l9.07-23.69c.62-1.61,2.64-2.15,3.97-1.05l19.55,16.14c1.05.87,1.24,2.43.4,3.5-6.1,7.82-21.91,10.28-31.16,8.47-1.52-.3-2.37-1.93-1.82-3.37Z"/>
        <path class="cls-4" d="m63.23,138.61l9.07-23.69c.62-1.61,2.64-2.15,3.97-1.05l19.55,16.14c1.05.87,1.24,2.43.4,3.5-6.1,7.82-21.91,10.28-31.16,8.47-1.52-.3-2.37-1.93-1.82-3.37Z"/>
      </g>
      <g>
        <path class="cls-5" d="m45.52,112.85l22.41-1.7c1.85-.14,3.21,1.69,2.55,3.42l-8.78,23c-.54,1.42-2.19,2.03-3.54,1.34-8.32-4.26-13.82-15.52-14.95-23.2-.21-1.44.87-2.74,2.32-2.85Z"/>
        <path class="cls-4" d="m45.52,112.85l22.41-1.7c1.85-.14,3.21,1.69,2.55,3.42l-8.78,23c-.54,1.42-2.19,2.03-3.54,1.34-8.32-4.26-13.82-15.52-14.95-23.2-.21-1.44.87-2.74,2.32-2.85Z"/>
      </g>
      <g>
        <path class="cls-5" d="m61.66,83.63l9.51,21.66c.69,1.56-.34,3.35-2.04,3.53l-23.22,2.5c-1.63.18-3.02-1.22-2.78-2.84,1.16-8.04,7.64-22.27,15.02-26.07,1.31-.68,2.92-.13,3.51,1.22Z"/>
        <path class="cls-4" d="m61.66,83.63l9.51,21.66c.69,1.56-.34,3.35-2.04,3.53l-23.22,2.5c-1.63.18-3.02-1.22-2.78-2.84,1.16-8.04,7.64-22.27,15.02-26.07,1.31-.68,2.92-.13,3.51,1.22Z"/>
      </g>
    </g>
  </g>
</svg>