<?xml version="1.0" encoding="UTF-8"?>
<svg id="Capa_1" data-name="Capa 1" xmlns="http://www.w3.org/2000/svg" viewBox="0 0 213.82 212.77">
  <defs>
    <style>
      .cls-1 {
        fill: #fff;
      }

      .cls-2 {
        stroke-linejoin: round;
      }

      .cls-2, .cls-3 {
        fill: none;
      }

      .cls-2, .cls-3, .cls-4 {
        stroke: #fff;
        stroke-linecap: round;
        stroke-width: 3.62px;
      }

      .cls-3, .cls-4 {
        stroke-miterlimit: 10;
      }

      .cls-4, .cls-5 {
        fill: #ef7f7e;
      }
    </style>
  </defs>
  <circle class="cls-5" cx="106.91" cy="106.39" r="106.22"/>
  <g>
    <g>
      <path class="cls-3" d="m136.77,68.08c-1.43,8.5-9.65,20.58-17.06,19.33s-11.21-15.35-9.78-23.86c1.43-8.5,8.6-14.38,16.02-13.13s12.26,9.16,10.82,17.66Z"/>
      <path class="cls-3" d="m117.7,88.91c.1-.61,1.03-1.43,1.97-1.27s1.55,1.23,1.45,1.85-.68-.62-1.63-.78-1.89.82-1.79.2Z"/>
    </g>
    <g>
      <path class="cls-4" d="m111.5,48.85c3.51,12.69-.04,34.71-11.1,37.77-11.06,3.06-25.43-13.99-28.95-26.68-3.51-12.69,2.6-25.46,13.66-28.52s22.87,4.74,26.39,17.43Z"/>
      <path class="cls-4" d="m98.59,89.99c-.25-.92.5-2.65,1.9-3.04s2.94.71,3.2,1.62-1.34-.41-2.75-.02-2.09,2.35-2.35,1.44Z"/>
    </g>
    <polyline class="cls-2" points="119.67 87.63 109.63 129.64 100.49 86.95"/>
    <path class="cls-1" d="m142.24,134.18c-.46-4.53-4.05-9.37-8.71-9.04-8.17.62-13.31,1.71-31.38,1.39,21.9-1.27,24.15-1.85,30.04-2.98,5.89-1.13,0-13.32-8.69-12.04-4.95.73-14.5.94-20.5.83,7.13-.58,16.41-1.5,20.28-2.45,4.38-1.07.32-9.45-7.07-7.67-4.72,1.14-9.17,1.33-13.69,1.04,5.76-.08,14.53-.92,13.52-4.22-2.18-7.14-9.18-8.47-9.18-8.47,0,0,.77,1.96-2.12,6.66-1.98,3.22-5.42,4.77-6.61,5.38-2.95-.02-8.52,1.84-8.29,7.27.03.72.38,1.39.86,1.91-4.96.77-7.7,4.27-7.57,8.29.13,4.02.43,4.66,1.06,5.79-3.78,1.03-6.92,4.57-7.26,8.5-.71.45-1.12,1.28-1.01,2.15,1.9,14.45,3.55,20.11,5.47,26.66.64,2.2,1.31,4.47,2.01,7.2l.03.11c.2.79.65,2.63,2.52,3.71,1.69.98,4.15,1.25,5.5,1.32,1.22.12,2.99.25,4.56.36l1.46.11s0,0,.01,0c0,0,0,0,0,0,1.66.11,4.89.24,6.53.25,0,0,.01,0,.02,0,0,0,0,0,0,0,.73,0,1.55.02,2.4.05,1.29.04,2.61.08,3.8.04.17,0,.35-.01.51-.02,0,0,0,0,0,0h.02c.78-.04,1.52-.02,2.32-.01.79.01,1.64.02,2.59,0,.47-.01.97-.04,1.5-.08.78,0,1.73-.02,2.7-.05,1.16-.04,2.33-.09,3.25-.16,0,0,0,0,.01,0,1.27-.09,2.8-.29,4.14-.47.42-.05.82-.11,1.19-.15.65-.07,3.57-.56,5.57-1.68,1.77-.99,2.26-2.62,2.58-3.69l.06-.22c3.31-10.81,5.17-20.19,6.64-33.46.1-.89-.35-1.73-1.1-2.16Zm-54.07,36.19c-.22-.12-.32-.5-.43-.94l-.04-.15c-.72-2.8-1.4-5.11-2.05-7.34-1.69-5.77-3.17-10.84-4.81-22.22.48.07.93.11,1.31.13.47.03.92.03,1.34.01,0,.09.01.19.02.28.41,8.84,2.44,17.87,4.41,26.64.29,1.29.58,2.57.86,3.84-.24-.08-.45-.16-.61-.25Zm5.34.89c-.6-3.23-1.32-6.52-2.02-9.73-1.41-6.4-2.85-12.98-3.39-19.34-.04-.46-.08-.92-.1-1.38,0-.13-.02-.27-.03-.4,1.54.35,2.88.4,2.91.41.09,0,.17,0,.26,0,.25,9.37,1.71,18,3.27,27.08.2,1.15.39,2.31.59,3.47-.5-.04-1.01-.08-1.49-.11Zm6.26.43c-.33-5.29-1.23-10.34-2.1-15.24-.92-5.18-1.79-10.12-2.06-15.29.39.04.82.08,1.29.1.9.04,1.71.02,2.43-.05.08,7.44.8,14.76,1.49,21.85.28,2.86.57,5.79.81,8.7-.62-.02-1.26-.05-1.87-.07Zm8.55-11.01c.05,3.63.11,7.37.14,11.24-.61,0-1.25-.03-1.88-.05-.1,0-.21,0-.31,0-.05-5.57-.66-10.99-1.26-16.25-.53-4.65-1.07-9.43-1.2-14.25.82.12,1.74.2,2.78.22.58.01,1.11,0,1.58-.02-.02,6.49.07,12.65.16,19.12Zm8.09-17.49c-.02.69-.04,1.38-.07,2.06-.04,1.22-.09,2.44-.15,3.65-.03.65-.06,1.31-.09,1.96-.06,1.38-.13,2.76-.21,4.13-.02.45-.05.9-.07,1.34-.1,1.81-.2,3.62-.3,5.41-.08,1.42-.16,2.86-.24,4.31-.02.33-.04.66-.05,1-.08,1.45-.15,2.9-.22,4.35,0,.16-.02.32-.02.48-.64,0-1.24,0-1.83,0-.04,0-.08,0-.12,0,.33-6.56.09-13.01-.14-19.26-.13-3.61-.26-7.32-.29-11.05.24.01.49.02.76.02.86,0,1.98-.02,3.08-.18-.02.59-.03,1.18-.04,1.77Zm7.92-1.67c0,.44-.02.89-.03,1.33-.02.73-.04,1.47-.07,2.2-.02.49-.05.98-.08,1.47-.04.68-.08,1.37-.13,2.05-.04.5-.08,1.01-.12,1.51-.06.68-.12,1.35-.19,2.03-.05.5-.1.99-.15,1.49-.08.7-.16,1.4-.24,2.1-.06.47-.11.93-.17,1.4-.1.77-.2,1.54-.3,2.32-.05.39-.1.79-.16,1.18-.13.97-.27,1.95-.42,2.93-.03.19-.05.37-.08.56-.18,1.21-.36,2.42-.54,3.64-.02.12-.04.24-.05.37-.18,1.19-.35,2.39-.53,3.59-.53.02-1.08.04-1.61.06,0-.08,0-.16.01-.24.07-1.44.15-2.88.22-4.32.02-.42.05-.85.07-1.27.07-1.32.14-2.63.22-3.92.1-1.78.2-3.58.3-5.38.03-.57.06-1.14.09-1.71.07-1.28.13-2.56.19-3.85.03-.74.06-1.47.1-2.21.05-1.13.09-2.26.14-3.4.03-.82.05-1.64.08-2.47.02-.58.04-1.17.06-1.75.47.03.98.04,1.56.03.7-.02,1.31-.06,1.86-.13,0,.13,0,.26,0,.39Zm6.33,10.33c-.06.46-.13.91-.2,1.36-.04.29-.09.58-.14.87-.07.45-.15.89-.22,1.34-.05.28-.1.56-.15.85-.08.46-.17.92-.25,1.38-.05.25-.09.5-.14.75-.11.56-.22,1.12-.34,1.67-.03.14-.06.29-.09.43-.15.7-.3,1.38-.45,2.06-.04.17-.08.34-.12.52-.12.51-.23,1.01-.35,1.5-.05.23-.11.45-.16.68-.11.44-.21.87-.32,1.3-.06.23-.11.45-.17.68-.11.43-.22.85-.33,1.27-.05.2-.1.4-.16.59-.12.46-.24.91-.37,1.35-.04.14-.08.29-.12.43-.03.1-.06.19-.08.29-.3.04-.61.08-.91.12.14-.96.28-1.92.42-2.87.13-.91.27-1.82.4-2.74.03-.23.07-.46.1-.69.07-.48.14-.95.2-1.43.11-.73.21-1.47.31-2.21.07-.48.13-.96.19-1.43.1-.73.2-1.46.29-2.2.06-.49.12-.98.18-1.48.09-.73.17-1.45.25-2.18.05-.5.1-1,.15-1.51.07-.72.14-1.45.2-2.17.04-.51.08-1.02.12-1.53.05-.72.1-1.45.14-2.17.03-.52.06-1.03.08-1.55.03-.73.05-1.45.07-2.18.01-.52.03-1.03.03-1.55,0-.18.01-.37.01-.55.27,0,.56,0,.85-.02.48-.03,1.19-.09,1.96-.23,0,.26,0,.52-.01.79,0,.28-.01.56-.02.85-.02.48-.04.96-.07,1.44-.01.25-.02.49-.04.73-.04.67-.09,1.33-.15,2,0,.06,0,.12-.01.19-.06.73-.14,1.47-.22,2.2-.03.24-.06.47-.08.71-.06.5-.12,1-.19,1.5-.04.28-.08.56-.12.84Zm1.8,16.66l-.07.24c-.22.73-.32.99-.5,1.09-.14.08-.31.16-.48.23,0-.02,0-.04.01-.05.04-.15.08-.3.12-.45.13-.48.25-.96.37-1.45.05-.22.11-.44.16-.66.11-.44.22-.89.33-1.34.05-.23.11-.46.16-.69.12-.49.23-.99.34-1.49.04-.19.09-.37.13-.56.15-.69.31-1.39.45-2.1.02-.09.04-.18.05-.27.13-.61.25-1.23.37-1.86.04-.23.09-.46.13-.69.09-.5.19-1.01.28-1.51.04-.25.09-.5.13-.75.09-.52.18-1.05.26-1.57.03-.22.07-.44.1-.65.11-.74.22-1.48.32-2.22.01-.08.02-.16.03-.24.09-.66.17-1.32.24-1.98.03-.24.05-.49.08-.73.05-.51.11-1.02.15-1.53.02-.27.05-.53.07-.8.04-.52.08-1.03.12-1.55.02-.24.03-.47.05-.71.04-.74.08-1.48.1-2.22,0-.03,0-.07,0-.1.02-.61.03-1.22.04-1.83.32,0,.66-.03,1.02-.06.32-.03.83-.1,1.43-.22-1.37,10.96-3.13,19.29-6.01,28.73Z"/>
  </g>
</svg>