<?xml version="1.0" encoding="utf-8"?>
<!-- Generator: Adobe Illustrator 27.5.0, SVG Export Plug-In . SVG Version: 6.00 Build 0)  -->
<svg version="1.1" id="Capa_1" xmlns="http://www.w3.org/2000/svg" xmlns:xlink="http://www.w3.org/1999/xlink" x="0px" y="0px"
	 viewBox="0 0 35.7 35.3" style="enable-background:new 0 0 35.7 35.3;" xml:space="preserve">
<style type="text/css">
	.st0{fill:#FFFFFF;}
</style>
<path class="st0" d="M22.4,9.5h-9c-2,0-3.7,1.6-3.7,3.7v9c0,2,1.6,3.7,3.7,3.7h9c2,0,3.7-1.6,3.7-3.7v-9C26,11.1,24.4,9.5,22.4,9.5z
	 M17.9,23.1c-3,0-5.4-2.4-5.4-5.4s2.4-5.4,5.4-5.4s5.4,2.4,5.4,5.4S20.8,23.1,17.9,23.1z M23.3,13.6c-0.8,0-1.5-0.7-1.5-1.5
	s0.7-1.5,1.5-1.5s1.5,0.7,1.5,1.5S24.1,13.6,23.3,13.6z"/>
<path class="st0" d="M17.9,0C8.1,0,0.2,7.9,0.2,17.7s7.9,17.7,17.7,17.7s17.7-7.9,17.7-17.7S27.6,0,17.9,0z M28.7,22
	c0,3.6-2.9,6.5-6.5,6.5h-8.7C9.9,28.5,7,25.6,7,22v-8.7c0-3.6,2.9-6.5,6.5-6.5h8.7c3.6,0,6.5,2.9,6.5,6.5V22z"/>
<path class="st0" d="M17.9,14.6c-1.7,0-3.1,1.4-3.1,3.1c0,1.7,1.4,3.1,3.1,3.1s3.1-1.4,3.1-3.1S19.6,14.6,17.9,14.6z"/>
</svg>
