<?xml version="1.0" encoding="UTF-8"?>
<svg id="Capa_1" data-name="Capa 1" xmlns="http://www.w3.org/2000/svg" viewBox="0 0 35.7 35.34">
  <defs>
    <style>
      .cls-1 {
        fill: #ef7f7e;
      }
    </style>
  </defs>
  <path class="cls-1" d="m22.37,9.49h-9.04c-2.02,0-3.66,1.64-3.66,3.66v9.04c0,2.02,1.64,3.66,3.66,3.66h9.04c2.02,0,3.66-1.64,3.66-3.66v-9.04c0-2.02-1.64-3.66-3.66-3.66Zm-4.52,13.61c-2.99,0-5.43-2.44-5.43-5.43s2.44-5.43,5.43-5.43,5.43,2.44,5.43,5.43-2.44,5.43-5.43,5.43Zm5.43-9.51c-.84,0-1.52-.68-1.52-1.52s.68-1.52,1.52-1.52,1.52.68,1.52,1.52-.68,1.52-1.52,1.52Z"/>
  <path class="cls-1" d="m17.85,0C8.09,0,.18,7.91.18,17.67s7.91,17.67,17.67,17.67,17.67-7.91,17.67-17.67S27.61,0,17.85,0Zm10.82,22.02c0,3.57-2.9,6.47-6.47,6.47h-8.7c-3.57,0-6.47-2.9-6.47-6.47v-8.7c0-3.57,2.9-6.47,6.47-6.47h8.7c3.57,0,6.47,2.9,6.47,6.47v8.7Z"/>
  <path class="cls-1" d="m17.85,14.56c-1.72,0-3.12,1.4-3.12,3.11s1.4,3.11,3.12,3.11,3.12-1.4,3.12-3.11-1.4-3.11-3.12-3.11Z"/>
</svg>